Coordinates
version=1
nRows=24
nColumns=24
inDegrees=yes

Units are S.I. units (second, meters, Newtons, ...)
Angles are in degrees.

endheader
time	pelvis_tilt	pelvis_list	pelvis_rotation	pelvis_tx	pelvis_ty	pelvis_tz	hip_flexion_r	hip_adduction_r	hip_rotation_r	knee_angle_r	ankle_angle_r	subtalar_angle_r	mtp_angle_r	hip_flexion_l	hip_adduction_l	hip_rotation_l	knee_angle_l	ankle_angle_l	subtalar_angle_l	mtp_angle_l	lumbar_extension	lumbar_bending	lumbar_rotation
      5.68000000	     -7.66069064	      5.24714996	      1.21363554	     -1.49364101	     -0.00403378	     -0.34874180	     27.47568968	    -11.28823848	     -8.06082518	    -62.61748754	    -13.43070410	      2.92581089	     37.77650431	     11.45534005	     10.46106667	     14.78238284	    -14.01085874	      1.79164723	     -9.02805586	      0.33519501	      6.91718761	     -6.47059621	      3.16503504
      5.68500000	     -7.59064290	      5.06476837	      1.43882918	     -1.48902192	     -0.00367581	     -0.34904971	     27.93655623	    -11.12082900	     -8.24920795	    -61.97635954	    -12.78772267	      3.05688886	     37.93368466	     10.91227317	     10.28132980	     15.07557077	    -13.75981068	      2.01405319	     -8.95694730	      0.39632046	      6.74610801	     -6.30918186	      2.71449327
      5.69000000	     -7.49728602	      4.90728451	      1.67883078	     -1.48443166	     -0.00332419	     -0.34937094	     28.35072364	    -10.98499300	     -8.43855853	    -61.27551280	    -12.15502005	      3.20079136	     38.05120540	     10.34730897	     10.12134788	     15.34606175	    -13.50365805	      2.20530100	     -8.84145124	      0.48980914	      6.54314548	     -6.17350068	      2.21630294
      5.69500000	     -7.39027978	      4.75039518	      1.92122565	     -1.47985280	     -0.00298801	     -0.34965939	     28.72602128	    -10.84096731	     -8.61718590	    -60.50829953	    -11.54947181	      3.35624894	     38.11094212	      9.76875959	      9.95107360	     15.60000703	    -13.24086727	      2.39517147	     -8.70922925	      0.62769891	      6.32834302	     -6.04264537	      1.72462013
      5.70000000	     -7.24762873	      4.62008391	      2.16506476	     -1.47529724	     -0.00265774	     -0.34993067	     29.04458086	    -10.72291597	     -8.78945737	    -59.69094313	    -10.95215712	      3.50338662	     38.07489071	      9.15756792	      9.79903798	     15.82124485	    -12.97777738	      2.54460713	     -8.54820240	      0.83196998	      6.06652902	     -5.93611543	      1.21853763
      5.70500000	     -7.13042844	      4.47667330	      2.39565781	     -1.47072778	     -0.00239950	     -0.35016517	     29.37174343	    -10.57775683	     -8.94193248	    -58.81449023	    -10.39964793	      3.65588549	     37.98295458	      8.57715373	      9.62386032	     16.02920592	    -12.71500689	      2.71862154	     -8.38958379	      1.08765737	      5.84469986	     -5.81331132	      0.74882001
      5.71000000	     -7.00340798	      4.34270311	      2.63196165	     -1.46616213	     -0.00217522	     -0.35036247	     29.66480851	    -10.43932723	     -9.08819340	    -57.88499417	     -9.87252502	      3.81017966	     37.82268502	      7.99400621	      9.45146668	     16.22176645	    -12.46092947	      2.88610598	     -8.22077333	      1.39288900	      5.61186797	     -5.70813194	      0.27764126
      5.71500000	     -6.86514748	      4.21742389	      2.86166811	     -1.46161092	     -0.00200496	     -0.35054431	     29.93021656	    -10.30312895	     -9.21517031	    -56.91228590	     -9.36829261	      3.96566625	     37.57132615	      7.40768333	      9.28448254	     16.40878720	    -12.21888925	      3.06310628	     -8.06954817	      1.75643366	      5.36876847	     -5.60595135	     -0.19259439
      5.72000000	     -6.80908894	      4.06901658	      3.07162210	     -1.45699629	     -0.00189835	     -0.35067181	     30.25685581	    -10.12306785	     -9.29760623	    -55.86081277	     -8.97749383	      4.12830142	     37.39528971	      6.91450187	      9.08964928	     16.60030059	    -11.98840975	      3.22597110	     -7.93999655	      1.99495794	      5.23649722	     -5.47799886	     -0.58137412
      5.72500000	     -6.63575529	      3.96383413	      3.34058403	     -1.45244910	     -0.00177897	     -0.35083571	     30.42484380	    -10.02669238	     -9.45091610	    -54.78702267	     -8.51311409	      4.28313007	     37.03582665	      6.31337461	      8.94352720	     16.80250779	    -11.79034592	      3.41211599	     -7.79435315	      2.35075351	      4.95134492	     -5.40930251	     -1.09754063
      5.73000000	     -6.46827366	      3.84287527	      3.51962811	     -1.44785665	     -0.00165555	     -0.35083059	     30.59551681	     -9.83800495	     -9.47568663	    -53.68383412	     -7.99455513	      4.53351323	     36.15305527	      5.71522201	      8.75872706	     16.96364377	    -11.56754944	      3.45087476	     -7.78614140	      2.88611647	      4.69334302	     -5.30646323	     -1.47618277
      5.73500000	     -6.44456262	      3.71907780	      3.80789012	     -1.44329259	     -0.00173358	     -0.35100282	     30.87750700	     -9.73302988	     -9.59384300	    -52.49776584	     -7.70334000	      4.69118067	     35.96900171	      5.31229308	      8.61030715	     17.23805822	    -11.44951337	      3.66760720	     -7.68879800	      3.05162457	      4.58974061	     -5.21910187	     -1.95183129
      5.74000000	     -6.29051276	      3.59175112	      4.04900537	     -1.43875068	     -0.00167865	     -0.35104817	     30.99864530	     -9.57635204	     -9.64559332	    -51.27660231	     -7.37414393	      4.90577318	     35.35331869	      4.76842833	      8.43846996	     17.51831528	    -11.32498513	      3.82439737	     -7.69196822	      3.20997199	      4.33532042	     -5.11934219	     -2.41259738
      5.74500000	     -6.23808506	      3.45686224	      4.33365097	     -1.43423455	     -0.00179863	     -0.35113402	     31.20232479	     -9.44828720	     -9.73694859	    -50.00836094	     -7.10125970	      5.04849607	     34.94779594	      4.37142121	      8.27963598	     17.84645323	    -11.27778717	      4.04963851	     -7.69095838	      3.29989942	      4.18849689	     -5.02625962	     -2.87422994
      5.75000000	     -6.15519491	      3.31324259	      4.60234412	     -1.42969044	     -0.00188903	     -0.35118792	     31.34680808	     -9.30334410	     -9.80949063	    -48.69854526	     -6.85919810	      5.20653935	     34.38352748	      3.94119644	      8.10730520	     18.20041394	    -11.23294147	      4.25604456	     -7.75923177	      3.31334046	      4.01905326	     -4.91509533	     -3.31778129
      5.75500000	     -6.09093903	      3.16815637	      4.86655706	     -1.42516387	     -0.00202652	     -0.35123452	     31.49458013	     -9.15867989	     -9.86066547	    -47.36431408	     -6.63137041	      5.37232440	     33.69018189	      3.54862173	      7.94051164	     18.58554494	    -11.22452222	      4.46292591	     -7.88017971	      3.24877274	      3.86874552	     -4.79815920	     -3.75114506
      5.76000000	     -6.14116118	      3.01699384	      5.03620301	     -1.42062458	     -0.00232401	     -0.35115723	     31.77350407	     -8.96134124	     -9.77476846	    -45.98318688	     -6.54553333	      5.52427711	     33.35082354	      3.30649460	      7.77140892	     18.83131420	    -11.25332738	      4.67611510	     -7.99545070	      3.24003859	      3.86045100	     -4.66991773	     -4.01605387
      5.76500000	     -5.98698570	      2.88574332	      5.32226146	     -1.41606175	     -0.00239728	     -0.35121039	     31.77180164	     -8.86225832	     -9.88534053	    -44.64529556	     -6.10366658	      5.82063859	     31.82998317	      2.79757127	      7.61753719	     19.39103331	    -11.23857815	      4.87410700	     -8.29689843	      2.77998394	      3.61448699	     -4.56875387	     -4.48656483
      5.77000000	     -6.08765036	      2.70947442	      5.52903635	     -1.41160253	     -0.00281165	     -0.35115637	     32.05926419	     -8.67873918	     -9.83387657	    -43.20334366	     -6.11035997	      5.84086816	     31.49112228	      2.66393390	      7.44010126	     19.68386951	    -11.36529534	      5.13914500	     -8.38843244	      2.78835413	      3.65074996	     -4.41949943	     -4.78081587
      5.77500000	     -6.05371084	      2.55118416	      5.86357216	     -1.40722191	     -0.00306058	     -0.35117233	     32.14827155	     -8.58786375	     -9.96919643	    -41.76051997	     -6.02503478	      5.75301473	     30.56702016	      2.37493937	      7.27452033	     20.19586276	    -11.48489138	      5.37931110	     -8.54500852	      2.56580954	      3.50360424	     -4.31483338	     -5.29870519
      5.78000000	     -6.14231055	      2.35285383	      6.01993395	     -1.40268787	     -0.00348164	     -0.35107541	     32.37869312	     -8.38510625	     -9.92100704	    -40.27379826	     -5.99267489	      5.82116547	     30.06928459	      2.22206958	      7.06888048	     20.48931086	    -11.60302234	      5.61939779	     -8.71275895	      2.49372841	      3.54741436	     -4.12873359	     -5.49483822
      5.78500000	     -6.06370062	      2.21312335	      6.26963061	     -1.39820868	     -0.00374404	     -0.35103314	     32.40425647	     -8.28689713	     -9.98764642	    -38.89699188	     -5.47040991	      6.04352435	     28.12948562	      1.85263412	      6.91383511	     21.02154759	    -11.69400795	      5.91979431	     -8.96558418	      1.86206882	      3.37455067	     -4.01319369	     -5.88658035
      5.79000000	     -6.19753707	      2.03277989	      6.49210569	     -1.39380677	     -0.00424924	     -0.35091703	     32.64733724	     -8.14814569	    -10.00133122	    -37.38658650	     -5.54238212	      5.83105183	     27.61915757	      1.78688133	      6.73313960	     21.30999954	    -11.86368317	      6.17651539	     -9.03529532	      1.85027175	      3.43547794	     -3.87474059	     -6.20111374
      5.79500000	     -6.18435888	      1.85057162	      6.69447154	     -1.38941222	     -0.00461263	     -0.35080015	     32.71365045	     -7.99616718	    -10.01720713	    -35.92609761	     -5.26547181	      5.89341893	     26.30690299	      1.54369293	      6.52919682	     21.66845684	    -12.01220131	      6.47435808	     -9.12428813	      1.65986752	      3.32664986	     -3.70533042	     -6.47667127
